<svg xmlns="http://www.w3.org/2000/svg" xlink="http://www.w3.org/1999/xlink" width="0" height="0" style="display:none;"><symbol viewBox="0 0 24 24" id="bookmark"><path stroke-linejoin="round" d="M7.5 3c-.418 0-.817.13-1.096.412-.28.282-.405.678-.405 1.088v15c0 .45.066.793.221 1.07.155.278.43.465.68.516.498.103.853-.154.853-.154a.5.5 0 00.078-.059L12 17.168l4.168 3.705c.03.027.064.05.1.068 0 0 .363.234.848.12.242-.057.509-.24.664-.514.154-.273.22-.61.22-1.047v-15c0-.41-.125-.806-.404-1.088-.28-.281-.679-.412-1.096-.412z"/></symbol><symbol viewBox="0 0 24 24" id="filter"><path stroke-linecap="square" stroke-linejoin="round" d="M5.5 4a.5.5 0 00-.424.766L10 12.643V19.5a.5.5 0 00.777.416l3-2A.5.5 0 0014 17.5v-4.857l4.924-7.877A.5.5 0 0018.5 4z"/></symbol><symbol viewBox="0 0 24 24" id="favorite"><path stroke-linecap="round" d="M8.5 4C6.022 4 3.968 6.143 4 8.629c0 3.184 2.097 6.102 4.137 8.248 1.312 1.403 2.798 2.622 4.363 3.728 1.75-1.347 3.134-2.45 4.361-3.724 2.026-2.13 4.102-5.024 4.133-8.186v-.007a.5.5 0 00-.004-.164C20.935 6.091 18.945 4 16.5 4c-1.155 0-2.239.293-3.09.814a2.828 2.828 0 00-.912.891 2.844 2.844 0 00-.908-.89C10.739 4.293 9.655 4 8.5 4z"/></symbol><symbol viewBox="0 0 24 24" id="tag"><path stroke-linejoin="round" d="M17.174 2.88v.003c-.018 0-.783.032-2.508.178-.582.049-1.838.215-3.182 1.558l-7.039 7.04a1.538 1.538 0 000 2.163l5.625 5.625c.594.594 1.571.594 2.164 0l7.04-7.039c1.341-1.341 1.523-2.586 1.558-3.195a95.896 95.896 0 01.178-2.639 3.5 3.5 0 00-3.836-3.693zM18 5a1 1 0 011 1 1 1 0 01-1 1 1 1 0 01-1-1 1 1 0 011-1z" paint-order="markers stroke fill"/></symbol><symbol viewBox="0 0 24 24" id="trash"><g stroke-linecap="square" stroke-linejoin="round"><path d="M5.5 6a.5.5 0 00-.5.5v1.002A.5.5 0 005.5 8h13a.5.5 0 00.5-.498V6.5a.5.5 0 00-.5-.5zM6 9v11.5a.5.5 0 00.5.5h11a.5.5 0 00.5-.5V9zm3 2h1v8H9zm2.5 0h1v8h-1zm2.5 0h1v8h-1z"/><path fill="none" stroke="currentColor" d="M9.5 4.5h5v2h-5z"/></g></symbol><symbol viewBox="0 0 24 24" id="bell"><path stroke-linecap="square" d="M12 2c-1.099 0-2 .901-2 2v.354C7.676 5.18 6.004 7.396 6.004 10L6 13.293l-2 2V18h16v-2.707l-2-2L17.996 10c0-2.604-1.672-4.82-3.996-5.646V4c0-1.099-.901-2-2-2zM9.184 19A3 3 0 0012 21a3 3 0 002.816-2z"/></symbol><symbol viewBox="0 0 24 24" id="location"><path fill="currentColor" fill-rule="evenodd" d="M13.034 19.65c2.117-3.047 5.517-7.938 5.517-10.87 0-3.48-2.927-6.302-6.538-6.302C8.4 2.478 5.474 5.3 5.474 8.78c0 3.166 3.877 8.616 5.973 11.561.208.293.398.56.566.8.275-.416.626-.921 1.021-1.49zm.827-10.905c0 .99-.833 1.793-1.861 1.793s-1.86-.803-1.86-1.793c0-.99.832-1.793 1.86-1.793s1.86.803 1.86 1.793z" clip-rule="evenodd"/><path stroke="currentColor" stroke-linecap="square" stroke-width="2" d="M18.551 8.78c0 3.48-4.788 9.72-6.538 12.36-1.854-2.64-6.539-8.88-6.539-12.36 0-3.48 2.927-6.302 6.539-6.302 3.61 0 6.538 2.821 6.538 6.301z"/></symbol><symbol viewBox="0 0 24 24" id="angle-left"><path fill="none" fill-rule="evenodd" stroke="currentColor" d="M15.5 5.5l-7 7 7 7"/></symbol><symbol viewBox="0 0 24 24" id="angle-right"><path fill="none" fill-rule="evenodd" stroke="currentColor" d="M8.5 5.5l7 7-7 7"/></symbol><symbol viewBox="0 0 24 24" id="paper-plane"><path fill-rule="evenodd" stroke-linejoin="round" d="M5.049 4.494a.5.5 0 00-.201.059l-.78.418a.5.5 0 00-.238.597L5.807 11.5h14.8L5.291 4.537a.5.5 0 00-.242-.043zm.758 8.006l-1.858 5.572a.5.5 0 00.07.453l.59.809a.5.5 0 00.61.16L20.607 12.5z"/></symbol><symbol viewBox="0 0 24 24" id="angle-down"><path fill="none" fill-rule="evenodd" stroke="currentColor" d="M4.5 8.5l7 7 7-7"/></symbol><symbol viewBox="0 0 24 24" id="user"><path stroke-linejoin="round" d="M12 2C9.244 2 7 4.245 7 7c0 1.886 1.064 3.512 2.611 4.363C6.363 12.381 4 15.42 4 19c0 .536.338.97.783 1.314.445.344 1.037.631 1.75.877C7.96 21.684 9.88 22 12 22c2.121 0 4.04-.316 5.467-.809.713-.246 1.305-.533 1.75-.877.445-.343.783-.778.783-1.314 0-3.58-2.363-6.619-5.611-7.637C15.936 10.512 17 8.886 17 7c0-2.755-2.244-5-5-5z"/></symbol><symbol viewBox="0 0 24 24" id="angle-up"><path fill="none" fill-rule="evenodd" stroke="currentColor" d="M4.5 15.5l7-7 7 7"/></symbol><symbol viewBox="0 0 24 24" id="arrow-down"><g fill="none" fill-rule="evenodd" stroke="currentColor"><path d="M11.5 19.5V4M4.5 12.5l7 7 7-7"/></g></symbol><symbol viewBox="0 0 24 24" id="flag"><g fill-rule="evenodd"><path fill="none" stroke="currentColor" d="M6.5 4v16"/><path d="M6 4v9h13.5l-3.375-4.5L19.5 4z"/></g></symbol><symbol viewBox="0 0 24 24" id="arrow-left"><g fill="none" fill-rule="evenodd" stroke="currentColor"><path d="M4.5 12.5H20M11.5 5.5l-7 7 7 7"/></g></symbol><symbol viewBox="0 0 24 24" id="comment"><path stroke-linecap="round" stroke-linejoin="round" stroke-width=".938" d="M6.313 4A3.316 3.316 0 003 7.313v6.375A3.316 3.316 0 006.313 17h.718v3.5c.001.4.47.615.774.355l4.5-3.855h5.383A3.316 3.316 0 0021 13.687V7.314A3.316 3.316 0 0017.687 4z"/></symbol><symbol viewBox="0 0 24 24" id="arrow-right"><g fill="none" fill-rule="evenodd" stroke="currentColor"><path d="M19.5 12.5H4M12.5 5.5l7 7-7 7"/></g></symbol><symbol viewBox="0 0 24 24" id="arrow-up"><g fill="none" fill-rule="evenodd" stroke="currentColor"><path d="M11.5 4.75v15.5M4.5 11.5l7-7 7 7"/></g></symbol><symbol viewBox="0 0 24 24" id="directions"><path stroke-linecap="round" stroke-linejoin="round" d="M12 2c-.629 0-1.257.24-1.734.717l-7.55 7.549a2.458 2.458 0 000 3.468l7.55 7.55a2.458 2.458 0 003.468 0l7.55-7.55a2.458 2.458 0 000-3.468l-7.55-7.55A2.446 2.446 0 0012 2zm2 6.5l4 2-4 2V11h-2.54c-.804 0-1.46.682-1.46 1.5V15H9v-2.5c0-1.354 1.095-2.5 2.46-2.5H14z"/></symbol><symbol viewBox="0 0 6.35 6.35" id="ellipsis-vertical"><g stroke-width=".265"><path d="M3.175 2.646c-.29 0-.53.238-.53.529 0 .29.24.53.53.53.29 0 .53-.24.53-.53 0-.29-.24-.53-.53-.53zM3.175 1.058c-.29 0-.53.239-.53.53 0 .29.24.529.53.529.29 0 .53-.239.53-.53 0-.29-.24-.529-.53-.529zM3.175 4.233c-.29 0-.53.239-.53.53 0 .29.24.529.53.529.29 0 .53-.239.53-.53 0-.29-.24-.529-.53-.529z"/></g></symbol><symbol viewBox="0 0 6.35 6.35" id="ellipsis-horizontal"><g stroke-width=".265"><path d="M3.176 2.645c-.29 0-.53.239-.53.53 0 .29.24.529.53.529.29 0 .53-.24.53-.53 0-.29-.24-.53-.53-.53zM1.588 2.645c-.29 0-.53.239-.53.53 0 .29.24.529.53.529.29 0 .53-.24.53-.53 0-.29-.24-.53-.53-.53zM4.762 2.645c-.291 0-.53.239-.53.53 0 .29.239.529.53.529.29 0 .529-.24.529-.53 0-.29-.239-.53-.53-.53z"/></g></symbol><symbol viewBox="0 0 24 24" id="history"><g fill="none" stroke="currentColor"><path fill-rule="evenodd" d="M11.5 7v5.5l3.5 3M7.504 11.293l-3 3-3-3"/><path stroke-linejoin="round" d="M6.697 17.303A7.5 7.5 0 104.5 12v2"/></g></symbol><symbol viewBox="0 0 24 24" id="maximize-2"><g fill="none" stroke="currentColor"><path stroke-linejoin="round" d="M10 20.5H4.5c-.57 0-1-.43-1-1V14"/><path fill-rule="evenodd" d="M10.981 13.019L4 20"/><path stroke-linejoin="round" d="M14 3.5h5.5c.57 0 1 .43 1 1v5.646"/><path fill-rule="evenodd" d="M19.854 4.146L13.02 10.98"/></g></symbol><symbol viewBox="0 0 24 24" id="maximize-3"><g fill="none" stroke="currentColor"><path stroke-linejoin="round" d="M10 20.5H4.5c-.57 0-1-.43-1-1V14"/><path fill-rule="evenodd" d="M10.981 13.019L4 20"/><path stroke-linejoin="round" d="M14 3.5h5.5c.57 0 1 .43 1 1v5.646"/><path fill-rule="evenodd" d="M19.854 4.146L13.02 10.98"/><path stroke-linejoin="round" d="M14 20.5h5.5c.57 0 1-.43 1-1V14"/><path fill-rule="evenodd" d="M13.019 13.019L20 20"/><g><path stroke-linejoin="round" d="M10 3.5H4.5c-.57 0-1 .43-1 1v5.646"/><path fill-rule="evenodd" d="M4.146 4.146l6.833 6.833"/></g></g></symbol><symbol viewBox="0 0 24 24" id="maximize"><g fill="none" stroke="currentColor"><path stroke-linejoin="round" d="M20.5 12v7.47c0 .57-.46 1.03-1.03 1.03H4.53c-.57 0-1.03-.46-1.03-1.03V4.53c0-.57.46-1.03 1.03-1.03H12m2 0h5.47c.57 0 1.03.46 1.03 1.03V10"/><path fill-rule="evenodd" d="M12 12l8-8"/></g></symbol><symbol viewBox="0 0 24 24" id="menu"><g fill="none" fill-rule="evenodd" stroke="currentColor"><path d="M4 8.5h16M4 12.5h16M4 16.5h16"/></g></symbol><symbol viewBox="0 0 24 24" id="minimize"><path fill="none" stroke="currentColor" stroke-linejoin="round" d="M18 12.5h-5.47c-.57 0-1.03-.46-1.03-1.03V6"/><path fill="none" fill-rule="evenodd" stroke="currentColor" d="M20 4l-8 8"/><path stroke-linejoin="round" d="M3.924 13a.935.935 0 00-.924.925v6.15c0 .504.42.924.924.924h6.152c.504 0 .924-.42.924-.924v-6.15a.935.935 0 00-.924-.926z"/></symbol><symbol viewBox="0 0 24 24" id="playback-rewind"><path fill-rule="evenodd" stroke-linejoin="round" d="M4.5 5a.5.5 0 00-.5.5v14a.5.5 0 00.5.5h3a.5.5 0 00.5-.5v-5.624l11.264 6.064A.5.5 0 0020 19.5v-14a.5.5 0 00-.736-.44L8 11.124V5.5a.5.5 0 00-.5-.5z"/></symbol><symbol viewBox="0 0 24 24" id="navigate"><path fill-rule="evenodd" d="M12 2.653l-.465 1.16-6.488 16.223L12 16.56l6.953 3.476z"/></symbol><symbol viewBox="0 0 24 24" id="playback-stop"><path stroke-linejoin="round" d="M6.5 5C5.678 5 5 5.676 5 6.5v12c0 .821.678 1.5 1.5 1.5h11c.822 0 1.5-.679 1.5-1.5v-12c0-.823-.678-1.5-1.5-1.5z"/></symbol><symbol viewBox="0 0 24 24" id="playback-forward"><path fill-rule="evenodd" stroke-linejoin="round" d="M4.496 5A.499.499 0 004 5.5v14a.5.5 0 00.736.44L16 13.877V19.5a.5.5 0 00.5.5h3a.5.5 0 00.5-.5v-14a.5.5 0 00-.5-.5h-3a.5.5 0 00-.5.5v5.625L4.736 5.06a.504.504 0 00-.24-.061z"/></symbol><symbol viewBox="0 0 24 24" id="refresh"><g fill="none" stroke="currentColor"><path fill-rule="evenodd" d="M7.504 11.293l-3 3-3-3"/><path stroke-linejoin="round" d="M6.697 17.303A7.5 7.5 0 104.5 12v2"/></g></symbol><symbol viewBox="0 0 24 24" id="redo"><g fill="none" stroke="currentColor"><path stroke-linejoin="round" d="M6.5 18a7.5 7.5 0 017.503-7.502h3"/><path fill-rule="evenodd" d="M14.296 7.646l3 3-3 3"/></g></symbol><symbol viewBox="0 0 24 24" id="sync"><g fill="none" stroke="currentColor"><path stroke-linejoin="round" d="M12 19.503a7.503 7.503 0 01-6.899-10.46M12 4.498a7.503 7.503 0 017.218 9.559"/><path fill-rule="evenodd" d="M12.354 16.496l3 3-3 3M11.707 1.647l-3 3 3 3M15 19.5h-3M12 4.5H9"/></g></symbol><symbol viewBox="0 0 24 24" id="undo"><g fill="none" stroke="currentColor"><path stroke-linejoin="round" d="M17.503 18A7.5 7.5 0 0010 10.498H7"/><path fill-rule="evenodd" d="M9.707 7.646l-3 3 3 3"/></g></symbol><symbol viewBox="0 0 24 24" id="toggle"><g fill="none" stroke="currentColor"><path stroke-linejoin="round" d="M6.003 8.498h11"/><path fill-rule="evenodd" d="M14.296 5.646l3 3-3 3"/><g><path stroke-linejoin="round" d="M18 15.498H7"/><path fill-rule="evenodd" d="M9.707 12.647l-3 3 3 3"/></g></g></symbol><symbol viewBox="0 0 24 24" id="view-list"><path stroke-linecap="round" d="M4.5 3C3.678 3 3 3.676 3 4.5v2C3 7.32 3.678 8 4.5 8h2C7.322 8 8 7.32 8 6.5v-2C8 3.676 7.322 3 6.5 3zM4.5 10c-.822 0-1.5.677-1.5 1.5v2c0 .821.678 1.5 1.5 1.5h2c.822 0 1.5-.679 1.5-1.5v-2c0-.823-.678-1.5-1.5-1.5zM4.5 17c-.822 0-1.5.677-1.5 1.5v2c0 .821.678 1.5 1.5 1.5h2c.822 0 1.5-.679 1.5-1.5v-2c0-.823-.678-1.5-1.5-1.5z" opacity=".93"/><path fill="none" stroke="currentColor" d="M10 5.5h11M10 12.5h11M10 19.5h11"/></symbol><symbol viewBox="0 0 24 24" id="view-thumbnails-2"><g stroke-linecap="round"><path d="M4.5 3C3.678 3 3 3.676 3 4.5v2C3 7.32 3.678 8 4.5 8h2C7.322 8 8 7.32 8 6.5v-2C8 3.676 7.322 3 6.5 3zM4.5 10c-.822 0-1.5.677-1.5 1.5v2c0 .821.678 1.5 1.5 1.5h2c.822 0 1.5-.679 1.5-1.5v-2c0-.823-.678-1.5-1.5-1.5zM4.5 17c-.822 0-1.5.677-1.5 1.5v2c0 .821.678 1.5 1.5 1.5h2c.822 0 1.5-.679 1.5-1.5v-2c0-.823-.678-1.5-1.5-1.5zM11.5 3c-.822 0-1.5.677-1.5 1.5v2c0 .821.678 1.5 1.5 1.5h2c.822 0 1.5-.679 1.5-1.5v-2c0-.823-.678-1.5-1.5-1.5zM11.5 10c-.822 0-1.5.677-1.5 1.5v2c0 .821.678 1.5 1.5 1.5h2c.822 0 1.5-.679 1.5-1.5v-2c0-.823-.678-1.5-1.5-1.5zM11.5 17c-.822 0-1.5.677-1.5 1.5v2c0 .821.678 1.5 1.5 1.5h2c.822 0 1.5-.679 1.5-1.5v-2c0-.823-.678-1.5-1.5-1.5zM18.5 3c-.822 0-1.5.677-1.5 1.5v2c0 .821.678 1.5 1.5 1.5h2c.822 0 1.5-.679 1.5-1.5v-2c0-.823-.678-1.5-1.5-1.5zM18.5 10c-.822 0-1.5.677-1.5 1.5v2c0 .821.678 1.5 1.5 1.5h2c.822 0 1.5-.679 1.5-1.5v-2c0-.823-.678-1.5-1.5-1.5zM18.5 17c-.822 0-1.5.677-1.5 1.5v2c0 .821.678 1.5 1.5 1.5h2c.822 0 1.5-.679 1.5-1.5v-2c0-.823-.678-1.5-1.5-1.5z" opacity=".93"/></g></symbol><symbol viewBox="0 0 24 24" id="playback-play"><path fill-rule="evenodd" stroke-linejoin="round" d="M6.496 5A.499.499 0 006 5.5v14a.5.5 0 00.736.44l13-7a.5.5 0 000-.88l-13-7a.504.504 0 00-.24-.061z"/></symbol><symbol viewBox="0 0 24 24" id="view-teasers-horizontal"><path stroke-linecap="round" d="M4.5 3C3.678 3 3 3.676 3 4.5v5c0 .821.678 1.5 1.5 1.5h5c.822 0 1.5-.679 1.5-1.5v-5c0-.823-.678-1.5-1.5-1.5zM4.5 13c-.822 0-1.5.677-1.5 1.5v5c0 .821.678 1.5 1.5 1.5h5c.822 0 1.5-.679 1.5-1.5v-5c0-.823-.678-1.5-1.5-1.5z" opacity=".93"/><path fill="none" stroke="currentColor" d="M13 4.5h8M13 6.5h8M13 8.5h4M13 14.5h8M13 16.5h8M13 18.5h4"/></symbol><symbol viewBox="0 0 24 24" id="view-thumbnails"><g stroke-linecap="round"><path d="M4.5 3C3.678 3 3 3.676 3 4.5v5c0 .821.678 1.5 1.5 1.5h5c.822 0 1.5-.679 1.5-1.5v-5c0-.823-.678-1.5-1.5-1.5zM14.5 3c-.822 0-1.5.677-1.5 1.5v5c0 .821.678 1.5 1.5 1.5h5c.822 0 1.5-.679 1.5-1.5v-5c0-.823-.678-1.5-1.5-1.5zM4.5 13c-.822 0-1.5.677-1.5 1.5v5c0 .821.678 1.5 1.5 1.5h5c.822 0 1.5-.679 1.5-1.5v-5c0-.823-.678-1.5-1.5-1.5zM14.5 13c-.822 0-1.5.677-1.5 1.5v5c0 .821.678 1.5 1.5 1.5h5c.822 0 1.5-.679 1.5-1.5v-5c0-.823-.678-1.5-1.5-1.5z" opacity=".93"/></g></symbol><symbol viewBox="0 0 24 24" id="playback-pause"><g stroke-linejoin="round"><path d="M6.809 5A.819.819 0 006 5.807v13.385c0 .438.37.806.809.806h3.382a.817.817 0 00.809-.806V5.808a.819.819 0 00-.809-.809zM13.809 5a.819.819 0 00-.809.808v13.384c0 .44.37.807.809.807h3.382a.817.817 0 00.809-.807V5.808a.819.819 0 00-.809-.809z"/></g></symbol><symbol viewBox="0 0 24 24" id="view-teasers-vertical"><path stroke-linecap="round" d="M4.5 5C3.678 5 3 5.676 3 6.5v5c0 .821.678 1.5 1.5 1.5h5c.822 0 1.5-.679 1.5-1.5v-5c0-.823-.678-1.5-1.5-1.5zM15.5 5c-.822 0-1.5.677-1.5 1.5v5c0 .821.678 1.5 1.5 1.5h5c.822 0 1.5-.679 1.5-1.5v-5c0-.823-.678-1.5-1.5-1.5z" opacity=".93"/><path fill="none" stroke="currentColor" d="M3 14.5h8M3 16.5h8M3 18.5h4M14 14.5h8M14 16.5h8M14 18.5h4"/></symbol><symbol viewBox="0 0 24 24" id="denied"><path stroke-linecap="square" stroke-linejoin="round" d="M12 2C6.483 2 2 6.483 2 12s4.483 10 10 10 10-4.483 10-10S17.517 2 12 2zm-6 9.5h12v1H6v-1z"/></symbol><symbol viewBox="0 0 24 24" id="error"><path stroke-linecap="square" stroke-linejoin="round" d="M12 2C6.483 2 2 6.483 2 12s4.483 10 10 10 10-4.483 10-10S17.517 2 12 2zM8.262 7.498l3.767 3.766 3.694-3.694.707.707-3.694 3.694 3.71 3.709-.708.707-3.709-3.71-3.724 3.725-.707-.707 3.724-3.724-3.767-3.766.707-.707z"/></symbol><symbol viewBox="0 0 24 24" id="help"><path stroke-linejoin="round" d="M12 2C6.483 2 2 6.483 2 12s4.483 10 10 10 10-4.483 10-10S17.517 2 12 2zm.5 4.5c1.667 0 2.792.89 3.105 1.988.314 1.099-.189 2.362-1.382 2.96-.91.455-1.32.99-1.526 1.4-.205.41-.197.652-.197.652v.5h-1v-.5s.008-.508.303-1.098c.294-.59.885-1.305 1.974-1.85.807-.402 1.054-1.139.868-1.79C14.458 8.11 13.833 7.5 12.5 7.5c-1.361 0-1.896.509-2.195 1.008-.3.499-.305.992-.305.992v.5H9v-.5s-.005-.757.445-1.508C9.896 7.242 10.861 6.5 12.5 6.5zM12 15a1 1 0 011 1 1 1 0 01-1 1 1 1 0 01-1-1 1 1 0 011-1z"/></symbol><symbol viewBox="0 0 24 24" id="information"><path stroke-linecap="square" stroke-linejoin="round" d="M12 2C6.483 2 2 6.483 2 12s4.483 10 10 10 10-4.483 10-10S17.517 2 12 2zm0 5a1 1 0 011 1 1 1 0 01-1 1 1 1 0 01-1-1 1 1 0 011-1zm-.5 4h1v6h-1v-6z"/></symbol><symbol viewBox="0 0 24 24" id="checked"><path stroke-linejoin="round" d="M12 2C6.483 2 2 6.483 2 12s4.483 10 10 10 10-4.483 10-10S17.517 2 12 2zm4.152 6.592l.727.685-5.799 6.131-3.328-3.146.687-.727 2.602 2.461 5.111-5.404z"/></symbol><symbol viewBox="0 0 24 24" id="unprotected"><path d="M12 2.85l-.32.265C8.843 5.48 4.445 6.004 4.445 6.004l-.484.053.041.484c.244 2.932-.147 5.828.578 8.525s2.65 5.114 7.248 6.9l.182.071.181-.07c4.59-1.787 6.509-4.204 7.23-6.9.723-2.697.333-5.594.577-8.526l.041-.484-.484-.053s-4.398-.525-7.235-2.889L12 2.85zM9.354 8.646L12 11.293l2.646-2.647.708.708L12.707 12l2.647 2.646-.708.708L12 12.707l-2.646 2.647-.708-.708L11.293 12 8.646 9.354l.708-.708z"/></symbol><symbol viewBox="0 0 24 24" id="protected"><path d="M12 2.85l-.32.265C8.843 5.48 4.445 6.004 4.445 6.004l-.484.053.041.484c.244 2.932-.147 5.828.578 8.525s2.65 5.114 7.248 6.9l.182.071.181-.07c4.59-1.787 6.509-4.204 7.23-6.9.723-2.697.333-5.594.577-8.526l.041-.484-.484-.053s-4.398-.525-7.235-2.889L12 2.85zm4.338 6.242l.726.685-5.8 6.131-3.328-3.146.687-.727 2.602 2.461 5.113-5.404z"/></symbol><symbol viewBox="0 0 24 24" id="not-allowed"><circle cx="12" cy="12" r="9.5" fill="none" stroke="currentColor" stroke-linecap="square" stroke-linejoin="round"/><path fill="none" fill-rule="evenodd" stroke="currentColor" d="M5.273 18.727L18.785 5.215"/></symbol><symbol viewBox="0 0 24 24" id="verified"><path stroke-linecap="round" stroke-linejoin="round" d="M11.99 1.992c-.455.001-.852.194-1.166.436-.313.241-.567.536-.808.826-.483.58-.937 1.124-1.295 1.266-.358.141-1.075.063-1.838-.024-.382-.043-.776-.08-1.174-.039-.398.04-.82.171-1.146.48-.327.31-.468.714-.514 1.094-.046.381-.012.757.03 1.123.081.733.155 1.42.003 1.762-.152.341-.723.772-1.334 1.229-.306.228-.616.468-.871.765-.256.298-.461.677-.467 1.113-.005.437.19.813.438 1.11.248.297.553.536.853.763.6.455 1.158.884 1.301 1.225.143.34.052 1.027-.049 1.76-.05.366-.095.744-.058 1.125.036.38.166.784.484 1.092.318.308.736.437 1.133.476.396.04.795.002 1.177-.043.766-.089 1.482-.17 1.836-.029.355.14.796.68 1.264 1.26.234.29.482.583.79.824.306.24.696.432 1.151.432.456-.001.853-.194 1.166-.436.314-.242.568-.538.81-.828.482-.581.94-1.122 1.298-1.264.358-.142 1.073-.065 1.836.022.381.043.776.08 1.174.04.397-.04.818-.173 1.144-.482.326-.309.47-.709.516-1.09.046-.38.01-.76-.031-1.126-.083-.733-.156-1.419-.004-1.76.152-.342.722-.772 1.334-1.229.305-.228.615-.47.87-.767.256-.298.462-.673.468-1.11.005-.436-.19-.814-.438-1.111-.248-.297-.552-.536-.852-.764-.599-.454-1.16-.883-1.302-1.224-.143-.341-.05-1.03.05-1.762.051-.366.094-.743.057-1.123-.036-.38-.166-.784-.484-1.092-.318-.308-.738-.438-1.135-.476-.397-.04-.791 0-1.174.044-.765.09-1.482.17-1.836.03-.354-.141-.797-.68-1.265-1.26-.234-.29-.48-.586-.787-.826-.308-.24-.7-.433-1.155-.432zm4.162 6.6l.727.685-5.799 6.131-3.328-3.146.687-.727 2.602 2.461 5.111-5.404z"/></symbol><symbol viewBox="0 0 24 24" id="baggage"><path stroke-linejoin="round" d="M5.5 6A2.506 2.506 0 003 8.5v9C3 18.876 4.124 20 5.5 20H7V6zM8 6v14h8V6zm9 0v14h1.5c1.376 0 2.5-1.124 2.5-2.5v-9C21 7.124 19.876 6 18.5 6z"/><path fill="none" stroke="currentColor" stroke-linecap="square" d="M9.5 6.5v-1c0-1.108.892-2 2-2h1c1.108 0 2 .892 2 2v1" opacity=".93"/></symbol><symbol viewBox="0 0 24 24" id="warning"><path stroke-linecap="square" stroke-linejoin="round" d="M11.912 3.002c-.576.03-1.1.356-1.389.861l-8.3 14.547C1.579 19.54 2.413 21 3.7 21h16.6c1.289 0 2.12-1.46 1.476-2.59l-8.3-14.547a1.702 1.702 0 00-1.565-.861zM11.5 8h1v7h-1V8zm.5 8a1 1 0 011 1 1 1 0 01-1 1 1 1 0 01-1-1 1 1 0 011-1z"/></symbol><symbol viewBox="0 0 24 24" id="barcode"><g stroke-linejoin="round"><path d="M4 6h1v12H4zM6 6h1v10H6zM8 6h2v10H8zM11 6h1v10h-1zM13 6h2v10h-2zM16 6h1v10h-1zM18 6h1v10h-1zM20 6h1v12h-1zM6 17h1v1H6zM8 17h1v1H8zM10 17h1v1h-1zM12 17h1v1h-1zM14 17h1v1h-1zM16 17h1v1h-1zM18 17h1v1h-1z"/></g></symbol><symbol viewBox="0 0 24 24" id="book"><path d="M5.5 3A2.506 2.506 0 003 5.5v13.004l-.002.1.041.097.96-.197H4c.008-.56.18-.903.43-1.133.25-.232.614-.363 1.07-.363H6V3zM7 3v14.008h11.5c1.376 0 2.5-1.124 2.5-2.5v-9c0-1.376-1.124-2.5-2.5-2.5z"/><path fill="none" stroke="currentColor" stroke-linejoin="round" d="M7.433 20.5H5.5c-1.108 0-2-.892-2-2h0m17-4v4h0c0 1.108-.892 2-2 2h-7.037"/><path fill="none" stroke="currentColor" stroke-linejoin="round" d="M20.5 16.5h0c0 1.108-.892 2-2 2h-13"/><path fill-rule="evenodd" stroke-linejoin="round" d="M7 18.5v4a.5.5 0 00.723.446L9.5 22.06l1.777.886A.5.5 0 0012 22.5v-4H7z"/></symbol><symbol viewBox="0 0 24 24" id="camcorder"><path stroke-linejoin="round" d="M3.5 6C2.678 6 2 6.678 2 7.5v9c0 .822.678 1.5 1.5 1.5h12c.822 0 1.5-.678 1.5-1.5v-2.941l3.168 2.816A.5.5 0 0021 16V8a.5.5 0 00-.832-.373L17 10.443V7.5c0-.822-.678-1.5-1.5-1.5z"/></symbol><symbol viewBox="0 0 24 24" id="cloud-disconnected"><path d="M12 4.002a6 6 0 00-5.18 2.97l-.22.376L20.18 18.14l.314-.282A4.492 4.492 0 0022 14.502c0-2.302-1.767-4.137-4.002-4.397 0-.033.006-.067.006-.101A6.01 6.01 0 0012 4.002zM3.814 6.113l-.628.776L5.957 9.14C3.683 9.629 2.003 11.63 2 14.002A5.006 5.006 0 007 19H18.092l1.094.889.628-.776z"/></symbol><symbol viewBox="0 0 24 24" id="cloud"><path d="M12 4.001c-2.987 0-5.449 2.223-5.88 5.14-2.35.431-4.117 2.438-4.12 4.86A5.006 5.006 0 007 19h10.5c2.48 0 4.5-2.02 4.5-4.498 0-2.302-1.767-4.137-4.002-4.396 0-.033.006-.066.006-.1A6.01 6.01 0 0012 4.003z"/></symbol><symbol viewBox="0 0 24 24" id="eye-cross"><path stroke-linejoin="round" d="M12 8a9.996 9.996 0 00-8.143 4.207.5.5 0 000 .58 9.981 9.981 0 004.309 3.428l2.232-1.815a2.487 2.487 0 01-.898-1.9c0-1.375 1.125-2.5 2.5-2.5.946 0 1.765.54 2.19 1.32l2.576-2.091A9.987 9.987 0 0012 8zm5.67 1.78l-3.184 2.587c.003.045.014.088.014.133 0 1.375-1.125 2.5-2.5 2.5-.222 0-.433-.039-.639-.094l-2.088 1.696A9.97 9.97 0 0012 17c3.234 0 6.27-1.57 8.143-4.207a.5.5 0 000-.58 9.985 9.985 0 00-2.473-2.434z"/><path fill="none" fill-rule="evenodd" stroke="currentColor" d="M4.015 19.012l16-13"/></symbol><symbol viewBox="0 0 24 24" id="eye"><path stroke-linejoin="round" d="M12 8a9.996 9.996 0 00-8.143 4.207.5.5 0 000 .58A10.002 10.002 0 0012 17c3.234 0 6.27-1.57 8.143-4.207a.5.5 0 000-.58A10.004 10.004 0 0012 8zm0 2c1.375 0 2.5 1.125 2.5 2.5S13.375 15 12 15a2.508 2.508 0 01-2.5-2.5c0-1.375 1.125-2.5 2.5-2.5z"/></symbol><symbol viewBox="0 0 24 24" id="briefcase"><g stroke-linejoin="round"><path d="M4.5 6C3.678 6 3 6.678 3 7.5v.846l7.861 2.722c.124-.041.253-.068.389-.068h1.5c.135 0 .264.027.387.068L21 8.346V7.5c0-.822-.678-1.5-1.5-1.5zM21 9.402l-7.074 2.446c.044.127.074.26.074.402v.5c0 .684-.566 1.25-1.25 1.25h-1.5c-.684 0-1.25-.566-1.25-1.25v-.5c0-.14.03-.274.074-.4L3 9.404V18.5c0 .822.678 1.5 1.5 1.5h15c.822 0 1.5-.678 1.5-1.5zM11.25 12a.24.24 0 00-.25.25v.5a.24.24 0 00.25.252h1.5a.24.24 0 00.25-.252v-.5a.24.24 0 00-.25-.25z"/><path fill="none" stroke="currentColor" d="M9.5 6.5v-2c0-.554.446-1 1-1h3c.554 0 1 .446 1 1v2"/></g></symbol><symbol viewBox="0 0 24 24" id="gear"><path stroke-linecap="square" stroke-linejoin="round" d="M10.5 2.5l-.234 2.213a7.5 7.5 0 00-2.19.912L6.344 4.223l-2.121 2.12 1.402 1.733a7.5 7.5 0 00-.914 2.192L2.5 10.5v3l2.213.232a7.5 7.5 0 00.906 2.2l-1.396 1.724 2.12 2.121 1.73-1.398a7.5 7.5 0 002.195.908L10.5 21.5h3l.234-2.213a7.5 7.5 0 002.19-.912l1.732 1.402 2.121-2.12-1.402-1.733a7.5 7.5 0 00.914-2.192L21.5 13.5v-3l-2.213-.232a7.5 7.5 0 00-.906-2.2l1.396-1.724-2.12-2.121-1.73 1.398a7.5 7.5 0 00-2.195-.908L13.5 2.5zm1.5 7a2.5 2.5 0 012.5 2.5 2.5 2.5 0 01-2.5 2.5A2.5 2.5 0 019.5 12 2.5 2.5 0 0112 9.5z"/></symbol><symbol viewBox="0 0 24 24" id="headphones"><path stroke-linecap="square" d="M12 3c-4.965 0-9 4.034-9 9v6.5C3 19.873 4.125 21 5.5 21H6c.55 0 1.008-.113 1.354-.378.345-.265.529-.656.61-1.045C8.13 18.8 8 17.928 8 17c0-.929.129-1.798-.035-2.576-.082-.389-.266-.78-.611-1.045-.346-.265-.803-.379-1.354-.379H4v-1c0-4.424 3.576-8 8-8 4.424 0 8 3.576 8 8v1h-2c-.55 0-1.008.114-1.354.379-.345.265-.529.656-.61 1.045-.165.778-.036 1.647-.036 2.576 0 .93-.129 1.8.035 2.578.082.39.266.78.611 1.045.346.265.803.377 1.354.377h.5c1.375 0 2.5-1.125 2.5-2.5V12c0-4.964-4.035-9-9-9z"/></symbol><symbol viewBox="0 0 24 24" id="gift"><g stroke-linejoin="round"><path d="M5.5 6C4.678 6 4 6.678 4 7.5v2c0 .647.421 1.291 1 1.5h7V6zM13 6v5h7c.579-.209 1-.853 1-1.5v-2c0-.822-.678-1.5-1.5-1.5zm-8 6v7.5c0 .823.678 1.5 1.5 1.5H12v-9zm8 0v9h5.5c.822 0 1.5-.677 1.5-1.5V12z"/><path fill="none" stroke="currentColor" d="M12.5 6c0-.828.895-2.5 2-2.5s2 .672 2 1.5-.895 1.5-2 1.5M12.5 6c0-.828-.895-2.5-2-2.5s-2 .672-2 1.5.895 1.5 2 1.5"/></g></symbol><symbol viewBox="0 0 24 24" id="lock-unlocked"><g stroke-linejoin="round"><path stroke-linecap="round" d="M7.852 11A1.86 1.86 0 006 12.854v6.294C6 20.166 6.834 21 7.852 21h8.296c.876 0 1.51-.666 1.7-1.486a.5.5 0 00.152-.366v-6.294A1.86 1.86 0 0016.148 11zM12 14a2 2 0 110 4 2 2 0 010-4z"/><path fill="none" stroke="currentColor" d="M15.5 9V8a3.5 3.5 0 00-7 0v3"/></g></symbol><symbol viewBox="0 0 24 24" id="lock-locked"><g stroke-linejoin="round"><path stroke-linecap="round" d="M7.852 11A1.86 1.86 0 006 12.854v6.294C6 20.166 6.834 21 7.852 21h8.296c.876 0 1.51-.666 1.7-1.486a.5.5 0 00.152-.366v-6.294A1.86 1.86 0 0016.148 11zM12 14a2 2 0 110 4 2 2 0 010-4z"/><path fill="none" stroke="currentColor" d="M15.5 11V8a3.5 3.5 0 00-7 0v3"/></g></symbol><symbol viewBox="0 0 24 24" id="male"><g stroke-linecap="round" transform="translate(0 -1028.362)"><path stroke-linejoin="round" stroke-width="1.5" d="M12.005 1035.404c-1.482.046-2.61.172-3.343.957-.77.823-1.091 2.397-1.209 3.378-.235 1.963.32 3.819.32 3.819.277 1.009 1.79.573 1.49-.429 0 0-.413-2.004-.27-3.205.071-.602.234-1.091.425-1.501 0 0 .133-.253.372-.176.24.077.222.29.222.29-.017 3.804-.018 7.897-.018 11.766-.02 1.467 2.039 1.467 2.019 0v-6.946h1.037v6.946a.997.997 0 001.983 0c.024-3.675-.017-8.101-.022-11.754 0 0-.019-.232.247-.302.265-.07.374.185.374.185.182.428.313.92.401 1.493.168 1.093-.27 3.205-.27 3.205-.3 1.002 1.213 1.437 1.49.429 0 0 .555-1.857.32-3.819-.118-.981-.44-2.593-1.209-3.416-.735-.786-1.865-.876-3.352-.92h-1.007z"/><circle cx="-427.679" cy="-486.606" r="62.822" fill="currentColor" stroke-linejoin="round" stroke-width="1.5"/><path fill="currentColor" stroke-linejoin="round" stroke-width="1.5" d="M-428.454-398.067l74.456 18.378v200.164a2.373 2.373 0 01-2.378 2.378h-144.156a2.373 2.373 0 01-2.378-2.378V-379.69z"/><path fill="none" fill-rule="evenodd" stroke="currentColor" stroke-width="50" d="M-546.343-153.88s-65.15-226.471 119.44-226.471M-311.744-153.88s65.15-226.471-119.44-226.471"/><path fill="none" fill-rule="evenodd" stroke="currentColor" stroke-width="70" d="M-468.66-211.273v291.62M-388.249-211.273v291.62"/><circle cx="-927.679" cy="-486.606" r="62.822" fill="currentColor" stroke-linejoin="round" stroke-width="1.5"/><path fill="currentColor" stroke-linejoin="round" stroke-width="1.5" d="M-928.455-398.068l-64.455 26.625-30 294.495h188.912l-30-294.495z"/><path fill="none" fill-rule="evenodd" stroke="currentColor" stroke-width="50" d="M-1046.343-153.88s-65.15-226.471 119.44-226.471M-811.744-153.88s65.15-226.471-119.44-226.471"/><path fill="none" fill-rule="evenodd" stroke="currentColor" stroke-width="70" d="M-968.66-211.273v291.62M-888.249-211.273v291.62"/><circle cx="12.504" cy="-1031.873" r="2.489" stroke-linejoin="round" stroke-width="1.5" transform="scale(1 -1)"/></g></symbol><symbol viewBox="0 0 24 24" id="microphone-mute"><path d="M12 3C9.793 3 8 4.793 8 7v7c0 .29.031.574.09.848l.168.79L16 9.446V7c0-2.207-1.793-4-4-4zm4 8.006l-.814.662-6.196 5.035.475.389A3.99 3.99 0 0012 18c2.207 0 4-1.793 4-4z"/><path fill="none" stroke="currentColor" stroke-linejoin="round" d="M17.5 14c0 3.047-2.453 5.5-5.5 5.5a5.484 5.484 0 01-4.289-2.05m-.779-1.303A5.508 5.508 0 016.5 14"/><path fill="none" fill-rule="evenodd" stroke="currentColor" d="M12 22v-3M4 18.5l16-13"/></symbol><symbol viewBox="0 0 24 24" id="music"><path stroke-linejoin="round" d="M15.484 2.002a.5.5 0 00-.16.03l-8 3A.5.5 0 007 5.5v8.883a2.618 2.618 0 00-.82-.32c-.693-.139-1.473-.046-2.215.287-.742.333-1.32.85-1.658 1.459-.338.607-.426 1.336-.116 1.97.31.635.937 1.022 1.63 1.16.692.138 1.472.046 2.214-.287.742-.333 1.32-.85 1.658-1.459.205-.369.302-.783.29-1.193H8V8.848l7-2.625v5.16a2.618 2.618 0 00-.82-.32c-.693-.139-1.473-.046-2.215.287-.742.333-1.32.85-1.658 1.459-.338.607-.426 1.336-.116 1.97.31.635.937 1.022 1.63 1.16.692.138 1.472.046 2.214-.287.742-.333 1.32-.85 1.658-1.459.205-.369.302-.783.29-1.193H16V2.5a.5.5 0 00-.516-.498zm3.006 5A.5.5 0 0018 7.5v9.883a2.618 2.618 0 00-.82-.32c-.693-.138-1.473-.046-2.215.287-.742.333-1.32.85-1.658 1.459-.338.607-.426 1.336-.116 1.97.31.635.937 1.022 1.63 1.16.692.138 1.472.046 2.214-.287.742-.333 1.32-.85 1.658-1.459.205-.369.302-.783.29-1.193H19V9.371c.322.494.602.991 1.164 1.5 1.238 1.12.846 3.533.846 3.533l.98.194s.639-2.845-1.154-4.467c-1.409-1.275-1.857-2.774-1.857-2.774a.5.5 0 00-.489-.355z"/></symbol><symbol viewBox="0 0 24 24" id="microphone"><path stroke-linejoin="round" d="M12 3C9.793 3 8 4.791 8 7v7c0 2.206 1.793 4 4 4s4-1.794 4-4V7c0-2.208-1.793-4-4-4z"/><path fill="none" stroke="currentColor" stroke-linejoin="round" d="M17.5 14c0 3.047-2.453 5.5-5.5 5.5A5.488 5.488 0 016.5 14"/><path fill="none" fill-rule="evenodd" stroke="currentColor" d="M12 22v-3"/></symbol><symbol viewBox="0 0 24 24" id="pin"><path fill="none" fill-rule="evenodd" stroke="currentColor" d="M12 21v-5"/><path d="M10.5 3c-.425 0-.764.21-1.027.474-.263.263-.473.6-.473 1.025v5.846c-1.253.99-1.999 2.597-2 4.154.002.426.204.787.473 1.05.268.265.622.455 1.037.448h6.978c.414.01.756-.183 1.026-.443.27-.261.484-.62.486-1.055 0-1.555-.752-3.163-2-4.154V4.499c0-.425-.21-.762-.473-1.025-.263-.263-.602-.475-1.027-.475z"/></symbol><symbol viewBox="0 0 24 24" id="shopping-cart"><g><path d="M2 5v1h2.139l.886 2.658 1.83 5.494A1.505 1.505 0 006 15.5c0 .823.678 1.5 1.5 1.5H18v-1H7.5a.493.493 0 01-.5-.5c0-.282.218-.5.5-.5h10.002c.427 0 .735-.23.98-.484.246-.255.436-.557.508-.916l1-5c.092-.459-.109-.895-.4-1.168A1.587 1.587 0 0018.5 7H5.527l-.666-2zM8.5 18c-.823 0-1.5.677-1.5 1.5 0 .822.678 1.5 1.5 1.5s1.5-.678 1.5-1.5c0-.823-.677-1.5-1.5-1.5zM16.5 18c-.823 0-1.5.677-1.5 1.5 0 .822.678 1.5 1.5 1.5s1.5-.678 1.5-1.5c0-.823-.677-1.5-1.5-1.5z"/></g></symbol><symbol viewBox="0 0 24 24" id="phone"><path d="M6.9 3A3.91 3.91 0 003 6.9c0 7.633 6.092 13.823 13.668 14.057l.008.043h.424a3.91 3.91 0 003.824-4.666 1.31 1.31 0 00-.84-.977h-.002l-4.168-1.494a1.049 1.049 0 00-1.225.41l-1.08 1.641c-2.49-.98-4.535-2.947-5.523-5.428-.012-.03-.005-.046.014-.058v-.002l1.644-1.12c.391-.266.555-.769.397-1.212h-.002L8.645 3.92a1.313 1.313 0 00-.98-.844v-.002h-.003l-.119-.02A3.81 3.81 0 006.9 3z"/></symbol><symbol viewBox="0 0 24 24" id="shield"><path d="M12 2.85l-.32.265C8.843 5.48 4.445 6.004 4.445 6.004l-.484.053.041.484c.244 2.933-.147 5.829.578 8.526s2.65 5.114 7.248 6.9l.182.07.181-.07c4.59-1.787 6.509-4.204 7.23-6.9.723-2.697.333-5.593.577-8.526l.041-.484-.484-.053s-4.398-.525-7.235-2.889z"/></symbol><symbol viewBox="0 0 24 24" id="thunder"><path stroke-linejoin="round" d="M9.5 3a.5.5 0 00-.477.35l-2.8 9a.5.5 0 00.476.65h3.438L8.02 20.361c-.15.522.522.875.867.455l9-11A.5.5 0 0017.5 9h-4.127l1.606-5.355a.5.5 0 00-.479-.645z"/></symbol><symbol viewBox="0 0 24 24" id="camera"><path stroke-linejoin="round" d="M9.5 5.002a.499.499 0 00-.4.2L7.75 7H4.5C3.679 7 3 7.679 3 8.5v10c0 .821.679 1.5 1.5 1.5h15c.821 0 1.5-.679 1.5-1.5v-10c0-.821-.679-1.5-1.5-1.5h-3.25L14.9 5.201a.5.5 0 00-.4-.199zM12 9c2.203 0 4 1.797 4 4 0 2.203-1.797 4-4 4-2.203 0-4-1.797-4-4 0-2.203 1.797-4 4-4zm0 1.002c-1.663 0-3 1.335-3 2.998 0 1.663 1.337 3 3 3s3-1.337 3-3a2.991 2.991 0 00-3-2.998z"/></symbol><symbol viewBox="0 0 24 24" id="ticket-2"><path stroke-linejoin="round" d="M2.1 14.621a.5.5 0 000 .707l2.122 2.122a.498.498 0 00.704 0c.492-.478.82-.641 1.065-.642.245 0 .57.151 1.06.64.488.489.642.815.64 1.06-.001.245-.162.575-.644 1.063a.499.499 0 00.003.704l2.122 2.122a.5.5 0 00.707 0l8.131-8.132-1.414-1.414.707-.707 1.415 1.414 3.181-3.182a.5.5 0 000-.707l-2.12-2.121a.498.498 0 00-.705 0c-.44.439-.775.604-1.043.611-.268.01-.6-.129-1.081-.609-.48-.48-.617-.81-.61-1.078.008-.268.177-.604.613-1.046a.499.499 0 00-.003-.704L14.828 2.6a.5.5 0 00-.707 0zm8.84-7.424l.706-.707 1.415 1.414-.707.707zm2.828 2.828l.707-.707 1.414 1.414-.707.707z"/></symbol><symbol viewBox="0 0 24 24" id="star"><path stroke-linecap="round" stroke-linejoin="round" d="M11.954 2c-.212 0-.35.1-.447.185a1.465 1.465 0 00-.239.278c-.14.202-.27.45-.406.738-.274.579-.566 1.323-.855 2.078-.288.754-.571 1.518-.81 2.107a11 11 0 01-.32.723c-.088.176-.21.291-.105.21.105-.082-.035.01-.223.043-.187.036-.451.07-.756.102-.61.064-1.392.12-2.168.182-.777.063-1.546.132-2.157.233-.305.05-.569.106-.795.185-.114.04-.218.086-.325.157a.695.695 0 00-.303.39.731.731 0 00.032.502c.047.123.109.222.18.323.14.201.324.407.545.632.442.45 1.032.97 1.63 1.49.599.52 1.207 1.037 1.67 1.457.231.21.425.397.559.538.133.142.2.3.158.17-.041-.13-.004.04-.03.237-.025.197-.075.466-.14.78-.13.625-.322 1.419-.504 2.21-.183.79-.357 1.574-.454 2.211a5.397 5.397 0 00-.076.847c.001.125.009.243.04.371.033.129.09.291.263.42.172.13.34.134.467.125.127-.01.236-.039.35-.077.227-.077.47-.199.743-.349.547-.3 1.204-.723 1.863-1.157.658-.434 1.318-.879 1.843-1.208.263-.165.493-.3.663-.388.17-.088.334-.104.201-.104h.002c-.13 0 .034.016.205.102.172.087.404.22.669.382.53.323 1.194.758 1.857 1.183.664.426 1.324.84 1.875 1.133.275.146.52.264.748.339.115.038.224.066.35.073a.64.64 0 00.466-.131.708.708 0 00.258-.424 1.53 1.53 0 00.037-.372c0-.25-.034-.529-.086-.847-.104-.636-.287-1.418-.48-2.206-.19-.787-.393-1.578-.53-2.201-.07-.312-.121-.583-.15-.78-.027-.197.007-.365-.033-.235s.025-.028.157-.17c.132-.144.324-.335.553-.548.458-.426 1.061-.95 1.654-1.477.592-.527 1.173-1.054 1.61-1.51a5.14 5.14 0 00.54-.639c.07-.101.13-.203.176-.326a.732.732 0 00.023-.502.691.691 0 00-.306-.386 1.383 1.383 0 00-.327-.151 4.863 4.863 0 00-.797-.176c-.612-.093-1.382-.155-2.159-.208-.776-.053-1.559-.097-2.17-.153a9.978 9.978 0 01-.756-.092c-.186-.032-.324-.117-.223-.04.106.078-.02-.034-.11-.209s-.203-.425-.326-.718c-.246-.586-.537-1.345-.834-2.096-.298-.75-.6-1.492-.88-2.067a5.258 5.258 0 00-.415-.733 1.463 1.463 0 00-.242-.275.66.66 0 00-.448-.182h-.002z"/></symbol><symbol viewBox="0 0 24 24" id="videogame"><path stroke-linejoin="round" d="M4.682 4.875c-.588 0-1.141.102-1.614.334-.472.232-.87.617-1.043 1.135-.648 1.946-.532 5.67-.015 8.256.255 1.274.619 2.63 1.15 3.681.266.526.573.98.97 1.307.399.327.928.512 1.468.404.765-.153 1.34-.621 1.793-1.158.453-.537.816-1.154 1.21-1.729.79-1.148 1.597-2.094 3.42-2.105 1.822-.011 2.613.93 3.393 2.084.39.577.75 1.2 1.2 1.74.45.541 1.02 1.013 1.788 1.166.54.108 1.07-.075 1.467-.402.398-.327.705-.781.97-1.307.532-1.05.896-2.407 1.151-3.681.517-2.584.64-6.292-.015-8.258-.173-.518-.571-.903-1.045-1.135-.474-.232-1.03-.332-1.621-.332-1.12 0-2.372.391-3.446 1.125H8.066c-1.042-.734-2.275-1.125-3.384-1.125zM6 8h1v2h2v1H7v2H6v-2H4v-1h2zm11.5 0c1.375 0 2.5 1.125 2.5 2.5S18.875 13 17.5 13a2.508 2.508 0 01-2.5-2.5C15 9.125 16.125 8 17.5 8zm0 1c-.834 0-1.5.666-1.5 1.5s.666 1.5 1.5 1.5 1.5-.666 1.5-1.5S18.334 9 17.5 9z"/></symbol></svg>